<svg xmlns="http://www.w3.org/2000/svg" width="194.24" height="218.26" viewBox="0 0 194.24 218.26"><defs><style>.a{fill:#ffdecc;}.a,.b,.c,.e,.f,.g,.h,.j,.m{fill-rule:evenodd;}.b{fill:#333;}.c,.d{fill:#ffdbba;}.e{fill:#fff;}.f{fill:#605f5b;}.g{fill:#c93838;}.h{fill:#ededed;}.i{opacity:0.2;}.j,.k{fill:#755a48;}.l{opacity:0.05;}.m{opacity:0.1;}</style></defs><title>1</title><path class="a" d="M77.71,130.12C34.78,148.94,21.9,159,16.81,163.48,9,170.42,4.63,196.29,0,218.26H194.24c-4.63-22-9-47.84-16.81-54.78-5.09-4.51-17.49-14.28-60.42-33.1Z"/><path class="b" d="M77.7,130.12C34.78,148.94,21.9,159,16.81,163.48,9,170.42,4.63,196.29,0,218.26H194.24c-4.63-22-9-47.84-16.81-54.78-5.09-4.51-17.49-14.28-60.42-33.1Z"/><path class="c" d="M76.28,92.6v47.58c11.46,13.55,30.22,14,41.68,0V92.6C118,66.91,76.28,66.91,76.28,92.6Z"/><ellipse class="d" cx="57.44" cy="74.18" rx="7" ry="12.1" transform="translate(-20.32 21.68) rotate(-18.22)"/><ellipse class="d" cx="136.62" cy="74.18" rx="12.1" ry="7" transform="translate(23.41 180.73) rotate(-71.77)"/><path class="e" d="M97.23,150.54s-29.09,6.94-29.09,8.7,11.07,59,11.07,59H118.7l4.53-58.77Z"/><polygon class="f" points="76.28 130.75 76.28 140.19 85.33 218.26 69.76 218.26 52.64 183.49 68.99 172.59 49.01 163.25 67.38 134.74 76.28 130.75"/><polygon class="f" points="117.96 130.79 117.96 140.19 108.82 218.26 124.39 218.26 141.52 183.49 125.17 172.59 145.15 163.25 128.82 135.62 117.96 130.79"/><path class="g" d="M88.16,160.19l5,7.82H101l5.05-7.82-8.86-9.65Z"/><polygon class="g" points="93.21 168.01 86.02 218.26 108.22 218.26 101.04 168.01 93.21 168.01"/><path class="h" d="M76.28,124.46l-1.82,7.09,5.1,36.91,17.67-17.92Z"/><path class="i" d="M76.28,115.65v1.5s10.65,12.64,20.81,13.09S118,118,118,118V115.7"/><path class="j" d="M130.14,10.77c9.54,1.52,14.82,8.06,17.08,16.94,5.88,23.11-6.43,73.23-49,73.82-22,.31-37.8-5.28-43.57-23.07S46.47,32,59,16C74.77-4.26,107.88-4.45,130.14,10.77Z"/><path class="c" d="M97.16,7.17C33,7.17,57.61,95,61.8,101.74c4.62,7.42,25,23.78,35.36,23.78s30.74-16.36,35.36-23.78C136.71,95,161.28,7.17,97.16,7.17Z"/><path class="j" d="M66.13,34.77c11.42,6.94,20.25-3.42,30.57,1s38.21-16.93,44.29,30c9.76-34-5-58.37-42.25-60C59,4.09,42.92,40.3,53.9,74.12,53.18,55.8,57.66,43.82,66.13,34.77Z"/><path class="k" d="M65.11,31.73c.27,5.85,10.25,6.84,14.51,7.09A33.13,33.13,0,0,0,91.3,37.34c4.68-1.41,10.59-3,14.39-6.16a.66.66,0,0,0-.29-1.1C98,28.88,90.56,35,83.06,35.52c-5.64.35-12.78-.31-17.23-4.09a.43.43,0,0,0-.72.3Z"/><path class="g" d="M117,89c.36,0,.73,0,1.12-.06,10.43-.87,13-5.56,14.17-11.48,1.29-6.5,1.37-8.77,3.05-9.36,1.23-.44,1.53-1.9,1.49-3.59s-.1-1.87-2.13-2.58c-1.61-.56-10.52-1.37-17.2-.95l0,1.75c5.26-.29,10.34.35,11.81,1.3,3.35,2.17,2.37,12.63-.45,17.82-2,3.6-7.14,5.43-11.81,5.51ZM97.47,64.35c-2.3.06-11.72-2.66-18.43-3.24-.48,0-1-.08-1.47-.11l0,1.75c5.45.25,11.09,1.48,13,4.39,3.17,4.77-2.53,16.44-7.68,19a13.5,13.5,0,0,1-5.8,1.22l0,1.65c9,0,12.35-6.49,13.47-8.66,2.1-4.08,1.66-9.71,6.83-9.72s4.48,5.51,6.32,9.59c1,2.2,3.92,9,13.28,8.69l0-1.65a13.31,13.31,0,0,1-6.11-1.19c-5-2.57-10-14.21-6.52-19,2.09-2.89,7.68-4.15,13.08-4.44l0-1.75-1.22.09C110.21,61.57,102.89,64.21,97.47,64.35ZM77.57,61c-6.62-.35-15.38.48-17,1-2.08.72-2.15.9-2.29,2.6s.08,3.15,1.27,3.58c1.64.59,1.59,2.86,2.49,9.35.81,5.92,3.09,10.59,13.47,11.41.53,0,1,.06,1.55.07l0-1.65c-4.77,0-10.08-1.77-11.87-5.46-2.51-5.18-2.86-15.63.64-17.83,1.51-.95,6.51-1.6,11.68-1.36Z"/><path class="h" d="M118,124.46l1.44,7-4.79,37.4L97.23,150.54Z"/><polyline class="l" points="76.28 124.46 97.23 150.54 117.96 124.46 117.96 123.84 97.23 149.8 76.28 123.84 76.28 124.46"/><polygon class="m" points="93.21 168.01 101.04 168.01 101.07 168.27 93.17 168.27 93.21 168.01"/></svg>