<svg xmlns="http://www.w3.org/2000/svg" width="184.24" height="195.38" viewBox="0 0 184.24 195.38"><defs><style>.a{fill:#806049;}.a,.b,.c,.d,.e,.g,.h{fill-rule:evenodd;}.b{fill:#268085;}.c{fill:#f5d5c1;}.d{opacity:0.2;}.e{fill:#80604a;}.f,.g{fill:#fff;}.h{opacity:0.05;}</style></defs><title>2</title><path class="a" d="M75.19,7C79.74-.91,116-7.87,130.74,20.2S138.07,58.11,146.22,68s.48,32.65-5.19,34.64-3.39,9.86-.63,13.24c11.79,14.42-5.26,38.74-50.79,38.49C41,154.11,31.41,125.84,43.88,117c4.07-2.88,5.65-8.4,1.19-13.27s-14.73-23-5-37.86S41.25,7,75.19,7Z"/><path class="b" d="M109.53,122.56c-.36.56-35.55,1.12-35.94,1.68C62.53,140,38.65,146.91,19.66,151.16S0,179.39,0,195.38H184.24c0-16-.38-39.91-19.66-44.22S120,139,109.53,122.56Z"/><path class="c" d="M73.66,88.88V134.1c9.25,18.92,25.85,19.41,36.92,0V88.88C110.58,64.46,73.66,64.46,73.66,88.88Z"/><path class="c" d="M140.81,67.76c-3.69-1.66-8.9,2.42-11.63,9.1s-2,13.45,1.72,15.11,8.9-2.41,11.64-9.1S144.5,69.43,140.81,67.76Z"/><path class="c" d="M43.46,67.76c3.69-1.66,8.9,2.41,11.64,9.1s2,13.45-1.72,15.11-8.9-2.41-11.64-9.1S39.78,69.43,43.46,67.76Z"/><path class="d" d="M73.66,111.37v1.26S85.24,124.2,91.95,124.2s18.63-11.7,18.63-11.7v-1.13Z"/><path class="c" d="M92.16,120.16c-11.46,0-35.68-18.89-43.16-46C41.43,46.88,55.67,7.69,92.16,7.69s50.72,39.19,43.16,66.52C127.83,101.27,103.62,120.16,92.16,120.16Z"/><path class="e" d="M83.57,41.57C74.62,60.35,71,65.89,59.08,60.93s-9.64,8.93-7.48,18.84c-10.54-13.38-9.3-26.09-6-39C49.17,26.6,67.29,5.06,84.29,5.45c9.24-1,23.22.18,38.09,10.89,26,18.72,17.3,60.77,10.3,65.72,6.78-38.95-9.82-31-21.26-51.39C107.66,21.72,93.3,21.17,83.57,41.57Z"/><rect class="f" x="89.71" y="148.67" width="3.78" height="46.7"/><polygon class="g" points="73.66 124.2 60.48 136.24 77.24 162.24 91.7 148.52 73.66 124.2"/><polygon class="g" points="110.58 124.11 123.75 136.66 106.16 162.24 91.7 148.52 110.58 124.11"/><path class="b" d="M112.16,88.3c.36,0,.74,0,1.12-.06,10.48-.88,13.06-5.58,14.23-11.53,1.3-6.53,1.38-8.8,3.07-9.4,1.23-.45,1.54-1.9,1.5-3.61s-.1-1.88-2.14-2.59c-1.62-.57-10.56-1.38-17.27-1l0,1.76c5.29-.29,10.38.35,11.86,1.3,3.36,2.18,2.38,12.69-.45,17.9-2,3.62-7.17,5.45-11.87,5.53ZM92.59,63.59c-2.31.06-11.77-2.67-18.5-3.25-.48,0-1-.08-1.48-.11l0,1.76c5.47.25,11.13,1.49,13.07,4.41,3.18,4.79-2.54,16.51-7.71,19.12a13.58,13.58,0,0,1-5.82,1.22l0,1.66c9.06,0,12.41-6.52,13.52-8.7,2.11-4.1,1.67-9.76,6.86-9.77s4.5,5.54,6.35,9.64c1,2.21,3.94,9,13.34,8.73l0-1.65a13.34,13.34,0,0,1-6.14-1.19c-5-2.59-10-14.27-6.55-19.08,2.09-2.9,7.72-4.17,13.14-4.46l0-1.76-1.22.09C105.39,60.8,98,63.45,92.59,63.59Zm-20-3.36c-6.64-.35-15.45.48-17.07,1-2.09.72-2.15.91-2.3,2.61s.08,3.16,1.28,3.6c1.65.59,1.6,2.87,2.5,9.39.81,5.94,3.1,10.63,13.53,11.46.53,0,1,.06,1.55.07l0-1.66C67.33,86.78,62,85,60.21,81.26c-2.52-5.2-2.87-15.7.64-17.9,1.51-.95,6.54-1.61,11.73-1.37Z"/><polygon class="h" points="73.66 124.2 91.7 148.52 110.58 124.11 110.56 123.59 91.7 147.84 73.66 123.59 73.66 124.2"/></svg>