<svg xmlns="http://www.w3.org/2000/svg" width="184.24" height="190.2" viewBox="0 0 184.24 190.2"><defs><style>.a{fill:#605343;}.a,.b,.c,.d,.e{fill-rule:evenodd;}.b{fill:#c93838;}.c{fill:#f6dcb9;}.d{opacity:0.2;}.e{fill:#ededed;}</style></defs><title>3</title><path class="a" d="M52.51,15.41C54.67,8.15,72,1.74,79,27.57s3.5,34.88,7.39,44-5.29,79.69-27,79.46C36.17,150.78,31.1,83.28,35.72,69.6S36.31,15.39,52.51,15.41Z"/><path class="a" d="M128.95,15.41c-2.17-7.26-19.46-13.67-26.51,12.16s-3.5,34.88-7.39,44,5.29,79.69,27,79.46c23.23-.25,28.29-67.75,23.67-81.42S145.15,15.39,128.95,15.41Z"/><path class="b" d="M109.53,121.37c-.36.56-35.55,1.12-35.94,1.68C62.53,138.82,38.65,141.73,19.66,146S0,174.21,0,190.19H184.24c0-16-.38-39.91-19.66-44.22S120,137.86,109.53,121.37Z"/><path class="b" d="M110.6,122.94v8.68l-9,58.58H82.45l-8.91-57.95v-9.12l0-.07c.39-.56,35.58-1.12,35.94-1.68C109.87,121.91,110.22,122.43,110.6,122.94Z"/><path class="c" d="M73.66,83.7v45.22c9.25,18.92,25.85,19.41,36.92,0V83.7C110.58,59.28,73.66,59.28,73.66,83.7Z"/><path class="c" d="M140.81,62.58c-3.69-1.66-8.9,2.42-11.63,9.1s-2,13.45,1.72,15.11,8.9-2.41,11.64-9.1S144.5,64.24,140.81,62.58Z"/><path class="c" d="M43.46,62.58c3.69-1.66,8.9,2.41,11.64,9.1s2,13.45-1.72,15.11-8.9-2.41-11.64-9.1S39.78,64.24,43.46,62.58Z"/><path class="d" d="M73.66,106.19v1.26S85.24,119,91.95,119s18.63-11.7,18.63-11.7v-1.13Z"/><path class="c" d="M92.16,115C80.69,115,56.48,96.08,49,69,41.43,41.7,55.67,2.51,92.16,2.51S142.88,41.7,135.32,69C127.83,96.08,103.62,115,92.16,115Z"/><path class="a" d="M137.57,35.58C134,21.42,115.85-.13,98.85.27A50.89,50.89,0,0,0,90.57.09a50.9,50.9,0,0,0-8.28.18c-17-.4-35.12,21.15-38.72,35.31C40.69,47,39.39,58.18,46.33,69.84c1.25,3.52,2.72,6,4.13,7-1.56-9-1.88-15.43-1.31-20.34,1.3-1.94,3.73-2.54,7.93-.8,11.9,5,15.54-.59,24.49-19.36,2.75-5.76,4.86-12.55,9-12.55s6.26,6.79,9,12.55c9,18.77,12.59,24.31,24.49,19.36,4.2-1.75,6.63-1.14,7.93.8.57,4.91.25,11.39-1.31,20.34,1.41-1,2.88-3.52,4.13-7C141.75,58.18,140.45,47,137.57,35.58Z"/><polygon class="e" points="82.6 190.18 67.03 190.18 65.96 190.2 49.9 175.55 66.25 164.65 46.27 155.3 59.5 134.76 64.64 126.79 73.54 122.8 73.54 132.25 82.45 190.2 82.6 190.18"/><polygon class="e" points="117.81 164.02 134.15 174.92 118.06 190.2 117.03 190.18 101.46 190.18 101.61 190.2 110.6 131.62 110.6 122.23 121.46 127.05 126.25 135.17 137.78 154.68 117.81 164.02"/></svg>