<svg xmlns="http://www.w3.org/2000/svg" width="194.24" height="217.95" viewBox="0 0 194.24 217.95"><defs><style>.a{fill:#ffdecc;}.a,.b,.c,.g{fill-rule:evenodd;}.b{fill:#c93838;}.c,.d{fill:#f6d1af;}.e{opacity:0.2;}.f{fill:#343434;}.g{opacity:0.1;}</style></defs><title>4</title><path class="a" d="M77.71,129.81c-42.93,18.82-55.8,28.85-60.9,33.36C9,170.11,4.63,196,0,218H194.24c-4.62-22-9-47.84-16.81-54.78-5.09-4.51-17.49-14.28-60.42-33.1Z"/><path class="b" d="M77.7,129.81c-42.93,18.82-55.8,28.85-60.89,33.36C9,170.11,4.63,196,0,218H194.24c-4.62-22-9-47.84-16.81-54.78-5.09-4.51-17.49-14.28-60.42-33.1Z"/><path class="c" d="M76.28,92.3v47.58c11.46,13.55,30.22,14,41.69,0V92.3C118,66.6,76.28,66.6,76.28,92.3Z"/><ellipse class="d" cx="57.44" cy="73.88" rx="7" ry="12.1" transform="translate(-20.22 21.67) rotate(-18.22)"/><ellipse class="d" cx="136.62" cy="73.88" rx="12.1" ry="7" transform="matrix(0.31, -0.95, 0.95, 0.31, 23.7, 180.52)"/><path class="e" d="M76.28,115.34v1.5s10.65,12.64,20.8,13.09S118,117.7,118,117.7v-2.31"/><path class="c" d="M97.16,6.87C33,6.87,57.61,94.7,61.8,101.43c4.62,7.42,25,23.78,35.36,23.78s30.74-16.36,35.36-23.78C136.71,94.7,161.28,6.87,97.16,6.87Z"/><path class="f" d="M125.92,8.92c-21.66-17-55.1-6.88-65.2,7.32C48.09,34,52.56,61,55.55,81.27c0,0,0-.06,0-.09,0,.2.08.41.13.63a6.26,6.26,0,0,0,.47.76c.11.19.89,0,1.15-.14a.31.31,0,0,0,.14-.27c.12-1.79,0-5.34,0-5.38-.24-2.79-.84-5.48-1.25-8.2,2-12.78,8-15.47,11.17-30.89.66-1,1.38-2,2.12-3a24.5,24.5,0,0,1,2.79-3.15,16.94,16.94,0,0,0,1.58-1.09c11.65-4.27,23.67.85,34.68,5.34,4.2,1.72,4.83-5.75,9.47-6.11,2-.15,6.08,6.56,7.75,6.37,16.52-1.95,9.61,23.09,12.17,34.66-.35,2-.73,4-.9,6.08,0,0-.11,3.59,0,5.38a.31.31,0,0,0,.14.27c.26.13,1,.33,1.15.14a6.25,6.25,0,0,0,.47-.76,10.3,10.3,0,0,0,.28-2.2c.13-1,.31-2.09.45-3.19C142.85,63.91,149,14.29,125.92,8.92ZM93.1,25.67,92,25.34c.54.13,1.07.27,1.61.42Z"/><polygon class="g" points="93.21 167.7 101.03 167.7 101.07 167.96 93.17 167.96 93.21 167.7"/><path class="f" d="M109.53,14.85s-18.67-13-35.33-6-31.33,9.67-35,5c0,0-10.33,21.67,9,33s41.33,2.33,47.67-4.67,16.67-18.33,22.33-16S109.53,14.85,109.53,14.85Z"/></svg>