<svg xmlns="http://www.w3.org/2000/svg" width="184.24" height="195.38" viewBox="0 0 184.24 195.38"><defs><style>.a{fill:#bf9741;}.a,.b,.c,.d,.e,.f{fill-rule:evenodd;}.b{fill:#7491a0;}.c{fill:#fff;}.d{fill:#f6dbc2;}.e{opacity:0.2;}.f{fill:#ededed;}</style></defs><title>5</title><path class="a" d="M78.52,6.43c3.95-7.26,35.39-13.67,48.22,12.16s6.37,34.88,13.44,44S130.58,142.27,91.05,142C48.8,141.8,39.59,74.3,48,60.62S49.06,6.41,78.52,6.43Z"/><path class="b" d="M109.53,126.56c-.36.56-35.55,1.12-35.94,1.68C62.53,144,38.65,146.91,19.66,151.16S0,179.39,0,195.38H184.24c0-16-.38-39.91-19.66-44.22S120,143,109.53,126.56Z"/><path class="c" d="M110.6,128.12v8.68l-9,58.58H82.45l-8.91-57.95v-9.12l0-.07c.39-.56,35.58-1.12,35.94-1.68C109.87,127.09,110.22,127.61,110.6,128.12Z"/><path class="d" d="M73.66,88.88V134.1c9.25,18.92,25.85,19.41,36.92,0V88.88C110.58,64.46,73.66,64.46,73.66,88.88Z"/><path class="d" d="M140.81,67.76c-3.69-1.66-8.9,2.42-11.63,9.1s-2,13.45,1.72,15.11,8.9-2.41,11.64-9.1S144.5,69.43,140.81,67.76Z"/><path class="d" d="M43.46,67.76c3.69-1.66,8.9,2.41,11.64,9.1s2,13.45-1.72,15.11-8.9-2.41-11.64-9.1S39.78,69.43,43.46,67.76Z"/><path class="e" d="M73.66,111.37v1.26S85.24,124.2,91.95,124.2s18.63-11.7,18.63-11.7v-1.13Z"/><path class="d" d="M92.16,120.16c-11.46,0-35.68-18.89-43.16-46C41.43,46.88,55.67,7.69,92.16,7.69s50.72,39.19,43.16,66.52C127.83,101.27,103.62,120.16,92.16,120.16Z"/><path class="a" d="M99.57,41.57c9,18.77,12.59,24.31,24.49,19.36s9.64,8.93,7.48,18.84c10.54-13.38,9.3-26.09,6-39C134,26.6,115.85,5.06,98.85,5.45c-9.24-1-23.22.18-38.09,10.89-26,18.72-17.3,60.77-10.3,65.72-6.78-38.95,9.82-31,21.26-51.39C75.48,21.72,89.84,21.17,99.57,41.57Z"/><polygon class="f" points="82.6 195.36 67.03 195.36 65.96 195.38 49.9 180.73 66.25 169.83 46.27 160.48 59.5 139.94 64.64 131.97 73.54 127.98 73.54 137.43 82.45 195.38 82.6 195.36"/><polygon class="f" points="117.81 169.2 134.15 180.1 118.06 195.38 117.03 195.36 101.46 195.36 101.61 195.38 110.6 136.8 110.6 127.41 121.46 132.23 126.25 140.35 137.78 159.86 117.81 169.2"/></svg>