<svg xmlns="http://www.w3.org/2000/svg" width="132.29" height="119.96" viewBox="0 0 132.29 119.96"><defs><style>.a,.g{fill:#ffebbf;}.b,.d,.e{fill:#335e59;}.c{fill:#88c9c1;}.d,.f,.g{fill-rule:evenodd;}.e{font-size:13.59px;font-family:Arial-BoldMT, Arial;font-weight:700;}.f,.h{fill:#ffae00;}</style></defs><title>insurance</title><rect class="a" x="-3.9" y="23.74" width="76.88" height="5.74" transform="translate(-8.74 21.31) rotate(-30.64)"/><rect class="a" x="94.89" y="-11.83" width="5.74" height="76.88" transform="translate(25.05 97.16) rotate(-59.36)"/><rect class="a" x="93.66" width="5.22" height="25.77"/><rect class="a" x="112.4" width="5.22" height="37.41"/><rect class="a" x="93.66" width="23.96" height="5.22"/><rect class="b" x="4.09" y="63.55" width="124.11" height="56.41"/><rect class="c" x="7.46" y="67.41" width="117.37" height="48.7"/><path class="d" d="M110.71,63.55H128.2V81A17.49,17.49,0,0,1,110.71,63.55Z"/><path class="d" d="M21.58,120H4.09V102.47A17.49,17.49,0,0,1,21.58,120Z"/><path class="d" d="M66.15,110.09A18.33,18.33,0,1,0,47.81,91.76,18.37,18.37,0,0,0,66.15,110.09Z"/><text class="e" transform="translate(9.43 81.55)">100</text><text class="e" transform="translate(100.22 114.33)">100</text><path class="c" d="M69,80.43a5.69,5.69,0,0,1,2.45,1.34,6.11,6.11,0,0,1,1.74,3.48l-3.68.48A3.57,3.57,0,0,0,69,84.42v-4Zm0,9a7.84,7.84,0,0,1,3.52,2.08,5.79,5.79,0,0,1,1.27,3.86A6.36,6.36,0,0,1,69,101.78V98.32a3,3,0,0,0,.55-.5,2.85,2.85,0,0,0,.68-1.9A2.52,2.52,0,0,0,69,93.68Zm-3.33,9.16V92.54q-.49-.14-.94-.31v-4.4a3.85,3.85,0,0,0,.94.56v-5a2.78,2.78,0,0,0-.94.52V80.34a8,8,0,0,1,.94-.15V78.75h2.1v1.44a8.69,8.69,0,0,1,1.23.24v4a2.75,2.75,0,0,0-1.23-1v5.68q.65.18,1.23.37v4.22a4.85,4.85,0,0,0-1.23-.52v5.67a3,3,0,0,0,1.23-.5v3.46a9.47,9.47,0,0,1-1.23.26v2.72h-2.1v-2.65a8.66,8.66,0,0,1-.94-.17V98A3.58,3.58,0,0,0,65.64,98.62Zm-.94-6.39a7.31,7.31,0,0,1-3.24-2.16,6.2,6.2,0,0,1-1.33-4,5.67,5.67,0,0,1,1.5-4,5.82,5.82,0,0,1,3.07-1.72v3.54a2.79,2.79,0,0,0-.43.46,2.57,2.57,0,0,0-.51,1.54,2.45,2.45,0,0,0,.46,1.43,2.7,2.7,0,0,0,.48.51v4.4Zm0,9.72a6.43,6.43,0,0,1-3.15-1.71,7.7,7.7,0,0,1-2-4.43l3.8-.41a4.81,4.81,0,0,0,.87,2,4.68,4.68,0,0,0,.49.55Z"/><path class="f" d="M70.94,46.57A11.12,11.12,0,1,0,59.82,35.46,11.14,11.14,0,0,0,70.94,46.57Z"/><path class="g" d="M70.94,44.87a9.41,9.41,0,1,0-9.41-9.41A9.43,9.43,0,0,0,70.94,44.87Z"/><path class="h" d="M67.73,37.29a5.86,5.86,0,0,0,1.55,1.33,3.26,3.26,0,0,0,1.62.44A1.62,1.62,0,0,0,72,38.68a1.23,1.23,0,0,0,.44-1,1.26,1.26,0,0,0-.37-1A4.53,4.53,0,0,0,70.4,36a6.3,6.3,0,0,1-2.81-1.38,3.08,3.08,0,0,1-.81-2.26,3.84,3.84,0,0,1,1.11-2.86A5,5,0,0,1,71,28.24V27h1.15v1.22a6.16,6.16,0,0,1,1.52.36,7.19,7.19,0,0,1,1.48.77L74,31.89a4.62,4.62,0,0,0-1.23-.77,3.28,3.28,0,0,0-1.26-.26,1.67,1.67,0,0,0-1,.3.94.94,0,0,0-.39.78,1,1,0,0,0,.35.79,3.77,3.77,0,0,0,1.37.56l.12,0a6.63,6.63,0,0,1,2.88,1.3,3.27,3.27,0,0,1,.71,1.15,4.27,4.27,0,0,1,.25,1.48,4.36,4.36,0,0,1-1.12,3.07,4.55,4.55,0,0,1-3,1.42v2.17H70.49V41.79a6.1,6.1,0,0,1-2.33-.47,6.8,6.8,0,0,1-2-1.41Z"/><path class="f" d="M57.34,59.15A11.12,11.12,0,1,0,46.22,48,11.14,11.14,0,0,0,57.34,59.15Z"/><path class="g" d="M57.34,57.44A9.41,9.41,0,1,0,47.93,48,9.42,9.42,0,0,0,57.34,57.44Z"/><path class="h" d="M54.13,49.87a5.89,5.89,0,0,0,1.55,1.33,3.27,3.27,0,0,0,1.62.44,1.62,1.62,0,0,0,1.11-.39,1.23,1.23,0,0,0,.44-1,1.26,1.26,0,0,0-.37-1,4.52,4.52,0,0,0-1.69-.7A6.3,6.3,0,0,1,54,47.23,3.09,3.09,0,0,1,53.18,45a3.84,3.84,0,0,1,1.11-2.86,5,5,0,0,1,3.11-1.3V39.58h1.15v1.22a6.11,6.11,0,0,1,1.52.36,7.18,7.18,0,0,1,1.48.77l-1.13,2.54a4.61,4.61,0,0,0-1.23-.77,3.29,3.29,0,0,0-1.26-.26,1.67,1.67,0,0,0-1,.3.94.94,0,0,0-.39.78,1,1,0,0,0,.35.79,3.77,3.77,0,0,0,1.37.56l.12,0a6.63,6.63,0,0,1,2.88,1.3,3.25,3.25,0,0,1,.71,1.15,4.26,4.26,0,0,1,.25,1.48A4.36,4.36,0,0,1,61,52.91a4.55,4.55,0,0,1-3,1.42v2.17H56.89V54.36a6.14,6.14,0,0,1-2.33-.47,6.85,6.85,0,0,1-2-1.41Z"/><path class="f" d="M76.32,73.4A11.12,11.12,0,1,0,65.21,62.29,11.14,11.14,0,0,0,76.32,73.4Z"/><path class="g" d="M76.32,71.7a9.41,9.41,0,1,0-9.41-9.41A9.42,9.42,0,0,0,76.32,71.7Z"/><path class="h" d="M73.12,64.12a5.89,5.89,0,0,0,1.56,1.33,3.26,3.26,0,0,0,1.62.44,1.62,1.62,0,0,0,1.11-.39,1.23,1.23,0,0,0,.44-1,1.26,1.26,0,0,0-.37-1,4.53,4.53,0,0,0-1.69-.7A6.29,6.29,0,0,1,73,61.49a3.08,3.08,0,0,1-.81-2.26,3.84,3.84,0,0,1,1.11-2.86,5,5,0,0,1,3.11-1.3V53.83h1.15v1.22a6.11,6.11,0,0,1,1.52.36,7.18,7.18,0,0,1,1.48.77l-1.13,2.54A4.61,4.61,0,0,0,78.18,58a3.28,3.28,0,0,0-1.26-.26,1.67,1.67,0,0,0-1,.3.94.94,0,0,0-.39.78,1,1,0,0,0,.35.79,3.77,3.77,0,0,0,1.37.56l.12,0a6.63,6.63,0,0,1,2.88,1.3,3.26,3.26,0,0,1,.71,1.15,4.27,4.27,0,0,1,.25,1.48A4.36,4.36,0,0,1,80,67.16a4.55,4.55,0,0,1-3,1.42v2.17H75.87V68.62a6.14,6.14,0,0,1-2.33-.47,6.86,6.86,0,0,1-2-1.41Z"/></svg>